# xmcd
#
# Track frame offsets: 
#        180
#        12642
#        22122
#        30372
#        41927
#        54724
#        71324
#        85541
#        99348
#        109738
#        124863
#        136630
#        147826
#        160128
#
# Disc length: 2276 seconds
#
# Revision: 0
# Processed by: cddbd v1.5.2PL0 Copyright (c) Steve Scherf et al.
# Submitted via: ExactAudioCopyFreeDBPlugin 1.0
#
DISCID=b308e20e
DTITLE=Various Artist - Collectables Presents A Rhythm and Blues Christ
DTITLE=mas, Volume 3
DYEAR=1994
DGENRE=Holiday
TTITLE0=Jimmy Beaumont and The Skyliners - You're My Christmas Present
TTITLE1=The Marcels - Merry Twist-Mas
TTITLE2=The Shells - Happy Holiday
TTITLE3=Frankie Lymon - Silent Night
TTITLE4=The Heartbeats - After New Years Eve
TTITLE5=The Ecstasys - White Christmas
TTITLE6=The Manhattans - It's That Time of The Year
TTITLE7=Big Dee Irwin and Little Eva - The Christmas Song
TTITLE8=Texas Pete Mayes - Christmas Holidays
TTITLE9=The Shirelles - Blue Holiday
TTITLE10=The Valentines - Christmas Prayer
TTITLE11=Margo Sylvia and The Tuneweavers - Merry Merry Christmas Baby
TTITLE12=The Ecstasys - Silent Night
TTITLE13=Patti LaBelle and The Bluebelles - Auld Lang Syne
EXTD=
EXTT0=
EXTT1=
EXTT2=
EXTT3=
EXTT4=
EXTT5=
EXTT6=
EXTT7=
EXTT8=
EXTT9=
EXTT10=
EXTT11=
EXTT12=
EXTT13=
PLAYORDER=
